<svg xmlns="http://www.w3.org/2000/svg" xmlns:xlink="http://www.w3.org/1999/xlink" width="113" height="113" viewBox="0 0 113 113"><defs><style>.a{fill:url(#a);}.b{fill:#fff;}</style><linearGradient id="a" x1="0.5" x2="0.5" y2="1" gradientUnits="objectBoundingBox"><stop offset="0" stop-color="#ff4a46"/><stop offset="1" stop-color="#fc5d2d"/></linearGradient></defs><g transform="translate(-425 -1492)"><circle class="a" cx="56.5" cy="56.5" r="56.5" transform="translate(425 1492)"/><g transform="translate(444 1446.544)"><g transform="translate(0 75.4)"><g transform="translate(0 0)"><path class="b" d="M75.5,104.693c-.09-2.091-2.136-3.761-6.093-4.965a43.412,43.412,0,0,0-11.179-1.565V82.11A1.627,1.627,0,0,0,58,81.358c-.421-1.82-2.452-3.295-6.048-4.378A44.794,44.794,0,0,0,39.494,75.4a43.669,43.669,0,0,0-12.337,1.58c-2.723.843-5.988,2.407-5.988,5.1a2.77,2.77,0,0,0,.045.5l.165,6.861a18,18,0,1,0,7.974,31.655,44.493,44.493,0,0,0,9.629,1.053c.767,4.168,9.795,6.078,18.2,6.078a43.059,43.059,0,0,0,12.337-1.61c2.723-.843,5.988-2.422,5.988-5.115v-16.52A1.821,1.821,0,0,0,75.5,104.693ZM55.081,90.43c0,.2-.722,1.234-3.987,2.227a42.587,42.587,0,0,1-11.585,1.459,43.045,43.045,0,0,1-10.246-1.128c-.045-.015-.075-.015-.12-.03a17.359,17.359,0,0,0-4.709-2.663l-.105-4.243a16.668,16.668,0,0,0,3.25,1.249A44.469,44.469,0,0,0,39.509,88.76a44.871,44.871,0,0,0,12.458-1.58,18.045,18.045,0,0,0,3.265-1.309v3.942A.864.864,0,0,0,55.081,90.43ZM28.06,79.884a40.641,40.641,0,0,1,11.434-1.459,42.006,42.006,0,0,1,11.585,1.459c3.265.993,3.987,2.016,3.987,2.212,0,.211-.737,1.249-4,2.227a42.514,42.514,0,0,1-11.57,1.444,41.309,41.309,0,0,1-11.088-1.354c-3.235-.933-4.137-1.956-4.213-2.287,0-.03-.015-.03-.015-.03C24.193,81.809,24.885,80.846,28.06,79.884Zm.045,38.336a15,15,0,1,1-10.1-26.074,15.324,15.324,0,0,1,4.438.662,15.058,15.058,0,0,1,10.261,11.3,15.734,15.734,0,0,1,.3,3.024A14.907,14.907,0,0,1,28.1,118.219Zm3.822.331a18.167,18.167,0,0,0,2.889-4.95c1.279.105,2.6.181,3.987.2v.271l.09,5.1A47,47,0,0,1,31.926,118.55Zm4.017-13.21c.873.06,1.79.09,2.723.105l.09,5.326c-1.053-.015-2.091-.06-3.084-.135a18.5,18.5,0,0,0,.346-3.521C36.019,106.529,35.989,105.942,35.943,105.34Zm3.7-2.889h-.15c-1.444,0-2.844-.06-4.137-.15a17.837,17.837,0,0,0-2.693-5.6,54.187,54.187,0,0,0,6.816.436,44.906,44.906,0,0,0,12.473-1.58,19,19,0,0,0,3.25-1.294v3.942C48.747,98.389,42.112,99.743,39.645,102.452Zm1.986,2.392a.114.114,0,0,1,.015-.06c.135-.406,1.2-1.4,4.318-2.272a40.947,40.947,0,0,1,10.727-1.279h.256a42.166,42.166,0,0,1,11.585,1.429c3.2.963,3.957,1.956,3.972,2.182v.015c-.015.226-.767,1.264-4.107,2.257a41.794,41.794,0,0,1-11.434,1.414,41.97,41.97,0,0,1-11.088-1.339c-3.235-.933-4.122-1.971-4.213-2.287Zm27.021,18.912A40.168,40.168,0,0,1,57.2,125.23,40.941,40.941,0,0,1,45.783,123.8c-3.175-.978-3.837-1.986-3.837-2.212v-.03l-.075-4.363a19.6,19.6,0,0,0,3.746,1.369,46.3,46.3,0,0,0,11.3,1.294,44.492,44.492,0,0,0,12.427-1.58A19.284,19.284,0,0,0,72.5,117v4.514h.015C72.519,121.725,71.827,122.763,68.652,123.756Zm3.882-11.073h-.015c0,.15-.09.331-.09.5,0,.211-.707,1.234-3.957,2.227a41.627,41.627,0,0,1-11.54,1.444c-8.335,0-13.947-1.881-15.121-3.34l-.015-1.264-.06-3.46a18.46,18.46,0,0,0,3.28,1.264,44.469,44.469,0,0,0,11.931,1.459,45.034,45.034,0,0,0,12.292-1.535,17.231,17.231,0,0,0,3.295-1.294Z" transform="translate(0 -75.4)"/></g></g><g transform="translate(12.337 94.793)"><g transform="translate(0 0)"><path class="b" d="M93.149,218.759a5.687,5.687,0,0,0-5.477-4.137,2.671,2.671,0,1,1,2.678-2.663,1.5,1.5,0,1,0,3.009,0,5.687,5.687,0,0,0-4.137-5.477V205.8a1.5,1.5,0,1,0-3.009,0v.647a5.678,5.678,0,0,0,1.459,11.164,2.671,2.671,0,1,1-2.663,2.678,1.5,1.5,0,1,0-3.009,0,5.715,5.715,0,0,0,4.213,5.492v1.309a1.5,1.5,0,1,0,3.009,0V225.77A5.676,5.676,0,0,0,93.149,218.759Z" transform="translate(-82 -204.3)"/></g></g></g></g></svg>