<svg xmlns="http://www.w3.org/2000/svg" xmlns:xlink="http://www.w3.org/1999/xlink" width="113" height="113" viewBox="0 0 113 113"><defs><style>.a{fill:url(#a);}.b{fill:#fff;}</style><linearGradient id="a" x1="0.5" x2="0.5" y2="1" gradientUnits="objectBoundingBox"><stop offset="0" stop-color="#c933e3"/><stop offset="1" stop-color="#852dfc"/></linearGradient></defs><g transform="translate(-335 -1691)"><circle class="a" cx="56.5" cy="56.5" r="56.5" transform="translate(335 1691)"/><g transform="translate(363.698 1716.88)"><path class="b" d="M134.325,116.088l26.235-15.146-12.339-7.124-26.235,15.146Z" transform="translate(-107.031 -85.795)"/><path class="b" d="M49.289,168.233,23,153.085v30.3L49.289,198.53Z" transform="translate(-23 -136.108)"/><path class="b" d="M211,168.233v30.3l14.353-8.3h0c4.095-2.189,2.225-1,5.114-2.627l.517-.171,6.154-2.855c0-.918,0-1.781,0-2.559.017-11.4.159-1.2,0-11.489.084-.426-.329-9.446.033-9.45h-.033v-7.995Z" transform="translate(-182.596 -136.108)"/><path class="b" d="M68.028,47.519l-11.781-6.8L30.013,55.864l11.781,6.8Z" transform="translate(-28.953 -40.717)"/></g></g></svg>