<svg xmlns="http://www.w3.org/2000/svg" xmlns:xlink="http://www.w3.org/1999/xlink" width="113" height="113" viewBox="0 0 113 113"><defs><style>.a{fill:url(#a);}.b{fill:#fff;}</style><linearGradient id="a" x1="0.5" x2="0.5" y2="1" gradientUnits="objectBoundingBox"><stop offset="0" stop-color="#ff7c1c"/><stop offset="1" stop-color="#ffa81d"/></linearGradient></defs><g transform="translate(-804 -1492)"><circle class="a" cx="56.5" cy="56.5" r="56.5" transform="translate(804 1492)"/><g transform="translate(826 1473.367)"><g transform="translate(-1 45.933)"><path class="b" d="M229.435,207.955l-5.709,3.449c-2.022,1.189-4.163,2.26-6.184,3.211-.595.238-1.308.595-2.022.951a6.146,6.146,0,0,0-3.211,6.779,5.924,5.924,0,0,0,4.4,4.4,5.791,5.791,0,0,0,1.427.119,6.088,6.088,0,0,0,5.352-3.33c.238-.595.595-1.308.952-2.022,1.07-2.022,2.022-4.163,3.211-6.184l3.449-5.709a1.3,1.3,0,0,0-.238-1.427,1.1,1.1,0,0,0-1.427-.238Zm-3.806,6.066a55.1,55.1,0,0,0-3.33,6.422,15.484,15.484,0,0,1-.951,2.022,3.529,3.529,0,0,1-4.044,1.9,3.3,3.3,0,0,1-2.616-2.616,3.529,3.529,0,0,1,1.9-4.044c.595-.357,1.308-.595,2.022-.952,2.141-1.07,4.4-2.141,6.422-3.33l1.546-.951Z" transform="translate(-182.457 -185.239)"/><path class="b" d="M67.811,68.41a1.272,1.272,0,0,0-.069-.237,1.042,1.042,0,0,0-.117-.214,35.913,35.913,0,0,0-7.575-11.368,1.292,1.292,0,0,0-.35-.35,35.509,35.509,0,0,0-38.224-7.76,1.268,1.268,0,0,0-.237.069,1.045,1.045,0,0,0-.214.117A35.913,35.913,0,0,0,9.658,56.241a1.293,1.293,0,0,0-.35.35A35.562,35.562,0,0,0-1,81.613a34.809,34.809,0,0,0,7.731,22.121,1.082,1.082,0,0,0,.952.476h54a1.082,1.082,0,0,0,.952-.476,34.81,34.81,0,0,0,7.731-22.121A35.352,35.352,0,0,0,67.811,68.41ZM61.2,101.831H8.277a32.945,32.945,0,0,1-4-6.636l3.286-1.332a1.171,1.171,0,0,0-.951-2.141L3.391,93.028A32.931,32.931,0,0,1,1.4,82.8H9.7a1.189,1.189,0,0,0,0-2.379H1.4A32.965,32.965,0,0,1,3.583,69.734L6.85,71.147a.715.715,0,0,0,.476.119,1.143,1.143,0,0,0,1.07-.714A1.18,1.18,0,0,0,7.8,69.006L4.5,67.579a33.537,33.537,0,0,1,5.843-8.637L12.8,61.394a1.15,1.15,0,0,0,1.665,0,1.15,1.15,0,0,0,0-1.665l-2.452-2.452A33.523,33.523,0,0,1,21.1,51.223L22.43,54.5a1.04,1.04,0,0,0,1.07.714.9.9,0,0,0,.476-.119,1.18,1.18,0,0,0,.595-1.546l-1.3-3.207a32.973,32.973,0,0,1,10.22-2v8.3a1.189,1.189,0,0,0,2.379,0v-8.3a32.965,32.965,0,0,1,10.689,2.181l-1.412,3.266a1.18,1.18,0,0,0,.595,1.546.715.715,0,0,0,.476.119,1.2,1.2,0,0,0,1.07-.714l1.427-3.3a33.537,33.537,0,0,1,8.637,5.843L54.9,59.729a1.15,1.15,0,0,0,0,1.665,1.08,1.08,0,0,0,.832.357,1.284,1.284,0,0,0,.832-.357l2.452-2.452a33.523,33.523,0,0,1,6.054,9.093L61.8,69.363a1.18,1.18,0,0,0-.595,1.546,1.04,1.04,0,0,0,1.07.714c.119,0,.238-.119.476-.119l3.207-1.3a32.973,32.973,0,0,1,2,10.22h-8.3a1.189,1.189,0,1,0,0,2.379h8.3a33.378,33.378,0,0,1-2.149,10.7l-3.3-1.427a1.171,1.171,0,1,0-.951,2.141L64.9,95.665A33.743,33.743,0,0,1,61.2,101.831Z" transform="translate(1 -45.933)"/></g></g></g></svg>