<svg xmlns="http://www.w3.org/2000/svg" xmlns:xlink="http://www.w3.org/1999/xlink" width="113" height="113" viewBox="0 0 113 113"><defs><style>.a{fill:url(#a);}.b{fill:#fff;}</style><linearGradient id="a" x1="0.5" x2="0.5" y2="1" gradientUnits="objectBoundingBox"><stop offset="0" stop-color="#2ee8c4"/><stop offset="1" stop-color="#63f57a"/></linearGradient></defs><g transform="translate(-629 -1492)"><circle class="a" cx="56.5" cy="56.5" r="56.5" transform="translate(629 1492)"/><g transform="translate(642 1455.415)"><path class="b" d="M32.521,136.509H44.644a1.149,1.149,0,0,0,0-2.3H32.521a1.149,1.149,0,0,0,0,2.3Z" transform="translate(-26.564 -59.848)"/><path class="b" d="M82.45,185.317H77.661a1.149,1.149,0,1,0,0,2.3H82.45a1.149,1.149,0,1,0,0-2.3Z" transform="translate(-64.785 -103.122)"/><path class="b" d="M1.149,224.626H12.876a1.149,1.149,0,0,0,0-2.3H1.149a1.149,1.149,0,0,0,0,2.3Z" transform="translate(0 -134.46)"/><path class="b" d="M45.794,363.938a1.149,1.149,0,0,0-1.149-1.149H32.521a1.149,1.149,0,1,0,0,2.3H44.644A1.149,1.149,0,0,0,45.794,363.938Z" transform="translate(-26.564 -253.394)"/><path class="b" d="M82.45,311.683H77.661a1.149,1.149,0,0,0,0,2.3H82.45a1.149,1.149,0,0,0,0-2.3Z" transform="translate(-64.785 -210.121)"/><path class="b" d="M14.025,275.822a1.149,1.149,0,0,0-1.149-1.149H1.149a1.149,1.149,0,1,0,0,2.3H12.876A1.149,1.149,0,0,0,14.025,275.822Z" transform="translate(0 -178.783)"/><path class="b" d="M313.178,143.436a1.149,1.149,0,0,0,1.149-1.149v-1.755a1.149,1.149,0,1,0-2.3,0v1.755A1.149,1.149,0,0,0,313.178,143.436Z" transform="translate(-264.206 -64.227)"/><path class="b" d="M384.294,171.679a1.15,1.15,0,0,0-1.626,0l-1.241,1.241a1.15,1.15,0,1,0,1.626,1.626l1.241-1.241A1.15,1.15,0,0,0,384.294,171.679Z" transform="translate(-322.684 -91.289)"/><path class="b" d="M410.848,248.5a1.149,1.149,0,1,0,0,2.3H412.6a1.149,1.149,0,1,0,0-2.3Z" transform="translate(-346.907 -156.622)"/><path class="b" d="M383.054,317.9a1.15,1.15,0,1,0-1.626,1.626l1.241,1.241a1.15,1.15,0,1,0,1.626-1.626Z" transform="translate(-322.684 -215.1)"/><path class="b" d="M312.029,347.319v1.754a1.149,1.149,0,0,0,2.3,0v-1.754a1.149,1.149,0,1,0-2.3,0Z" transform="translate(-264.206 -239.322)"/><path class="b" d="M236.448,317.9l-1.241,1.241a1.149,1.149,0,0,0,1.626,1.626l1.241-1.241a1.149,1.149,0,0,0-1.626-1.626Z" transform="translate(-198.873 -215.1)"/><path class="b" d="M204.06,248.5a1.149,1.149,0,1,0,0,2.3h1.755a1.149,1.149,0,1,0,0-2.3Z" transform="translate(-171.812 -156.622)"/><path class="b" d="M238.074,172.919l-1.241-1.241a1.149,1.149,0,0,0-1.626,1.626l1.241,1.241a1.149,1.149,0,0,0,1.626-1.626Z" transform="translate(-198.874 -91.289)"/><path class="b" d="M319.36,196.149A1.149,1.149,0,0,0,318.21,195h-3.882v-8.534a1.149,1.149,0,1,0-2.3,0v9.684a1.149,1.149,0,0,0,1.149,1.149h5.032A1.149,1.149,0,0,0,319.36,196.149Z" transform="translate(-264.206 -103.121)"/><path class="b" d="M214.71,129.2a1.149,1.149,0,0,0,1.078-1.217,22.9,22.9,0,1,0-.212,4.836,1.149,1.149,0,1,0-2.274-.341,20.634,20.634,0,1,1,.19-4.355A1.15,1.15,0,0,0,214.71,129.2Z" transform="translate(-143.942 -36.358)"/><path class="b" d="M136.763,63.529a29.487,29.487,0,0,0-11.651,2.407H104.83a1.149,1.149,0,1,0,0,2.3h15.957a29.468,29.468,0,0,0-5.895,5,1.149,1.149,0,1,0,1.7,1.543,27.145,27.145,0,1,1-2.7,3.51,1.149,1.149,0,0,0-1.931-1.248,29.491,29.491,0,0,0,8.824,40.782H104.831a1.149,1.149,0,1,0,0,2.3H125.1a29.5,29.5,0,1,0,11.667-56.59Z" transform="translate(-87.79)"/></g></g></svg>